#!OML:ASF C:\ViconDB\ViconDB\414\Spring2016\042216\male.ASF
:FULLY-SPECIFIED
:DEGREES
1050
root 37.0569 17.3811 4.90765 -539.471 22.1954 -180.799
lowerback -3.01271 -1.89901 2.3593
upperback -0.441056 -2.58489 -0.964148
thorax 1.08584 -1.27761 -2.40851
lowerneck -1.18552 5.58109 -3.17478
upperneck 5.82673 8.07852 -4.47291
head 2.09822 3.95862 -0.693295
rclavicle 8.85834e-015 1.01877e-015
rhumerus -31.3548 -2.59118 -93.9674
rradius 28.807
rwrist 26.72
rhand 9.90983 -21.7139
rfingers 7.12502
rthumb 35.0408 -48.2604
lclavicle 8.85834e-015 1.01877e-015
lhumerus -37.4623 13.7985 87.1916
lradius 32.3054
lwrist -11.5984
lhand -17.944 15.9151
lfingers 7.12502
lthumb 8.32439 45.7311
rfemur -5.50462 21.9945 17.8163
rtibia 25.7357
rfoot -25.8519 -33.8682
rtoes -9.86397
lfemur -7.14886 -7.91704 -19.9468
ltibia 28.1609
lfoot -30.0259 30.1733
ltoes -11.9478
1051
root 37.0537 17.3822 4.90874 -539.429 22.1802 -180.733
lowerback -2.97345 -1.92111 2.37214
upperback -0.484882 -2.61305 -0.965456
thorax 1.01659 -1.29292 -2.41535
lowerneck -1.12346 5.56336 -3.23162
upperneck 5.82514 8.04576 -4.37854
head 2.07918 3.94379 -0.657483
rclavicle -1.2035e-014 -1.21756e-015
rhumerus -31.4334 -2.67961 -93.8949
rradius 28.8202
rwrist 26.279
rhand 10.1208 -22.0089
rfingers 7.12502
rthumb 35.2409 -48.5084
lclavicle -1.2035e-014 -1.21756e-015
lhumerus -37.5221 13.8009 87.0946
lradius 32.224
lwrist -11.5836
lhand -18.4114 15.8538
lfingers 7.12502
lthumb 7.87327 45.6872
rfemur -5.47948 22.0876 17.8749
rtibia 25.6492
rfoot -25.9012 -33.9464
rtoes -9.78602
lfemur -7.22008 -7.8634 -19.8791
ltibia 28.2469
lfoot -30.0464 30.1144
ltoes -11.9026
1052
root 37.0493 17.3845 4.90901 -539.394 22.1511 -180.632
lowerback -2.93337 -1.95707 2.38251
upperback -0.513805 -2.66102 -0.904781
thorax 0.964076 -1.31802 -2.3581
lowerneck -1.09324 5.56059 -3.37328
upperneck 5.85909 8.04578 -4.31688
head 2.07587 3.94311 -0.615767
rclavicle 9.11164e-014 2.55935e-015
rhumerus -31.5244 -2.77138 -93.6896
rradius 28.644
rwrist 27.0005
rhand 9.94064 -21.5536
rfingers 7.12502
rthumb 35.07 -48.0933
lclavicle 9.11164e-014 2.55935e-015
lhumerus -37.5969 13.8117 87.1223
lradius 32.1766
lwrist -11.4516
lhand -18.8987 15.759
lfingers 7.12502
lthumb 7.40292 45.6095
rfemur -5.44503 22.0427 17.9624
rtibia 25.584
rfoot -26.116 -33.893
rtoes -9.46601
lfemur -7.2785 -7.88814 -19.7892
ltibia 28.3282
lfoot -30.1117 30.0766
ltoes -12.0249
1053
root 37.0456 17.3812 4.91082 -539.361 22.1173 -180.536
lowerback -2.90046 -1.98931 2.38212
upperback -0.522941 -2.70386 -0.862685
thorax 0.935866 -1.34004 -2.31447
lowerneck -1.07551 5.55065 -3.43977
upperneck 5.85103 8.03412 -4.31148
head 2.06692 3.9372 -0.604261
rclavicle 5.00433e-014 2.88238e-015
rhumerus -31.5746 -2.86543 -93.5391
rradius 28.5203
rwrist 27.3812
rhand 9.90748 -21.6841
rfingers 7.12502
rthumb 35.0386 -48.2312
lclavicle 5.00433e-014 2.88238e-015
lhumerus -37.6025 14.0857 86.9768
lradius 32.047
lwrist -11.7235
lhand -18.9821 15.6298
lfingers 7.12502
lthumb 7.32247 45.4831
rfemur -5.40423 22.1255 18.0621
rtibia 25.5104
rfoot -26.1346 -33.9801
rtoes -9.44222
lfemur -7.34076 -7.73039 -19.6907
ltibia 28.4196
lfoot -30.0091 29.977
ltoes -12.016
1054
root 37.0414 17.3811 4.91228 -539.342 22.0744 -180.497
lowerback -2.89965 -1.9919 2.4017
upperback -0.520844 -2.70759 -0.884514
thorax 0.935378 -1.34181 -2.34795
lowerneck -1.05735 5.51834 -3.46664
upperneck 5.82841 7.98436 -4.26449
head 2.05246 3.9131 -0.587339
rclavicle 2.19152e-014 -1.04362e-015
rhumerus -31.6015 -3.05034 -93.4214
rradius 28.4008
rwrist 27.5069
rhand 9.83212 -21.7635
rfingers 7.12502
rthumb 34.9671 -48.3273
lclavicle 2.19152e-014 -1.04362e-015
lhumerus -37.5709 14.2439 86.8254
lradius 31.9049
lwrist -12.0399
lhand -18.962 15.5847
lfingers 7.12502
lthumb 7.34179 45.4373
rfemur -5.36976 22.2113 18.0987
rtibia 25.4425
rfoot -26.1418 -34.0777
rtoes -9.47649
lfemur -7.41875 -7.59159 -19.6522
ltibia 28.5096
lfoot -29.9347 29.9341
ltoes -12.2367
1055
root 37.035 17.3824 4.91422 -539.316 22.0282 -180.464
lowerback -2.86658 -1.97652 2.50147
upperback -0.533469 -2.68784 -0.971725
thorax 0.89622 -1.33225 -2.49101
lowerneck -1.08417 5.46484 -3.41394
upperneck 5.87595 7.90632 -4.18267
head 2.07045 3.87383 -0.570482
rclavicle -3.05414e-014 -1.2921e-015
rhumerus -31.6544 -3.3399 -93.3776
rradius 28.3041
rwrist 27.487
rhand 9.70862 -21.6763
rfingers 7.12502
rthumb 34.8499 -48.2673
lclavicle -3.05414e-014 -1.2921e-015
lhumerus -37.6066 14.4514 86.5552
lradius 31.9104
lwrist -12.5375
lhand -18.8206 15.55
lfingers 7.12502
lthumb 7.47834 45.3978
rfemur -5.36406 22.2329 18.1099
rtibia 25.3869
rfoot -26.1229 -34.1367
rtoes -9.42384
lfemur -7.51116 -7.56968 -19.6339
ltibia 28.5973
lfoot -29.8719 29.9252
ltoes -12.2616
1056
root 37.0306 17.3844 4.91617 -539.292 21.9724 -180.427
lowerback -2.87828 -1.95809 2.51403
upperback -0.515408 -2.66399 -0.989719
thorax 0.921331 -1.31975 -2.51672
lowerneck -1.1592 5.41707 -3.46859
upperneck 5.92688 7.84505 -4.11288
head 2.09445 3.84075 -0.538005
rclavicle 6.11045e-014 8.15017e-015
rhumerus -31.6638 -3.57952 -93.2348
rradius 28.1659
rwrist 27.752
rhand 9.76699 -21.6465
rfingers 7.12502
rthumb 34.9053 -48.2246
lclavicle 6.11045e-014 8.15017e-015
lhumerus -37.5638 14.5146 86.4991
lradius 31.9223
lwrist -12.655
lhand -18.7638 15.5788
lfingers 7.12502
lthumb 7.53317 45.4246
rfemur -5.33621 22.344 18.1457
rtibia 25.325
rfoot -26.1903 -34.259
rtoes -9.35182
lfemur -7.60029 -7.50962 -19.5973
ltibia 28.6907
lfoot -29.8381 29.8237
ltoes -12.2369
1057
root 37.0264 17.3857 4.91912 -539.243 21.9192 -180.342
lowerback -2.87587 -1.95508 2.56897
upperback -0.510991 -2.66175 -0.991152
thorax 0.922066 -1.31849 -2.54889
lowerneck -1.20676 5.39997 -3.50698
upperneck 5.97147 7.82518 -4.06624
head 2.11362 3.82911 -0.515462
rclavicle 2.72894e-014 -3.47873e-015
rhumerus -31.7271 -3.61601 -93.165
rradius 28.0903
rwrist 27.8524
rhand 9.75038 -21.5571
rfingers 7.12502
rthumb 34.8895 -48.1389
lclavicle 2.72894e-014 -3.47873e-015
lhumerus -37.5337 14.5545 86.4509
lradius 31.9336
lwrist -12.6569
lhand -18.7298 15.5521
lfingers 7.12502
lthumb 7.56593 45.3967
rfemur -5.32879 22.4182 18.2309
rtibia 25.2637
rfoot -26.1573 -34.388
rtoes -9.39538
lfemur -7.71138 -7.37034 -19.497
ltibia 28.7922
lfoot -29.7467 29.6797
ltoes -12.2745
1058
root 37.022 17.384 4.9207 -539.254 21.897 -180.271
lowerback -2.80657 -1.96866 2.58383
upperback -0.504283 -2.67957 -0.962817
thorax 0.889738 -1.32805 -2.526
lowerneck -1.22308 5.39706 -3.60819
upperneck 5.94914 7.82101 -4.02469
head 2.10302 3.82627 -0.486101
rclavicle 1.50113e-014 3.27995e-015
rhumerus -31.7783 -3.51456 -93.103
rradius 28.002
rwrist 27.7825
rhand 9.72388 -21.8055
rfingers 7.12502
rthumb 34.8644 -48.3931
lclavicle 1.50113e-014 3.27995e-015
lhumerus -37.4896 14.5698 86.4926
lradius 31.9532
lwrist -12.3072
lhand -18.7581 15.511
lfingers 7.12502
lthumb 7.53864 45.3567
rfemur -5.26275 22.4639 18.3095
rtibia 25.2049
rfoot -26.1689 -34.4513
rtoes -9.24844
lfemur -7.76608 -7.08296 -19.4144
ltibia 28.903
lfoot -29.634 29.4695
ltoes -12.3238
1059
root 37.0182 17.3819 4.92224 -539.291 21.8879 -180.223
lowerback -2.73557 -1.97199 2.55802
upperback -0.495107 -2.68244 -0.935218
thorax 0.861772 -1.33012 -2.48066
lowerneck -1.18829 5.38078 -3.67919
upperneck 5.89517 7.79698 -4.02518
head 2.07615 3.81514 -0.477269
rclavicle 1.12728e-013 8.84592e-015
rhumerus -31.8692 -3.49262 -93.044
rradius 27.9311
rwrist 27.884
rhand 9.75915 -21.881
rfingers 7.12502
rthumb 34.8979 -48.4608
lclavicle 1.12728e-013 8.84592e-015
lhumerus -37.4538 14.5694 86.5446
lradius 32.0203
lwrist -12.0274
lhand -18.628 15.5037
lfingers 7.12502
lthumb 7.66424 45.3448
rfemur -5.17466 22.5978 18.3875
rtibia 25.166
rfoot -26.2296 -34.5579
rtoes -9.23677
lfemur -7.78593 -6.68353 -19.3453
ltibia 29.0036
lfoot -29.5662 29.181
ltoes -12.5448
1060
root 37.0159 17.3814 4.92446 -539.279 21.8639 -180.167
lowerback -2.70512 -1.96348 2.54559
upperback -0.501017 -2.67004 -0.929561
thorax 0.840274 -1.32436 -2.46617
lowerneck -1.20294 5.3552 -3.66857
upperneck 5.91907 7.76884 -4.06158
head 2.08867 3.80033 -0.489963
rclavicle -4.27667e-014 -6.26172e-015
rhumerus -31.949 -3.43954 -92.9955
rradius 27.8579
rwrist 27.8575
rhand 9.81678 -21.7303
rfingers 7.12502
rthumb 34.9525 -48.2975
lclavicle -4.27667e-014 -6.26172e-015
lhumerus -37.4714 14.4643 86.5729
lradius 32.1403
lwrist -11.8429
lhand -18.4622 15.4369
lfingers 7.12502
lthumb 7.82427 45.2721
rfemur -5.13612 22.7468 18.4718
rtibia 25.1393
rfoot -26.0907 -34.7361
rtoes -9.53141
lfemur -7.86155 -6.17653 -19.2387
ltibia 29.0768
lfoot -29.4402 28.7685
ltoes -12.5898
1061
root 37.0112 17.3808 4.9257 -539.286 21.8646 -180.157
lowerback -2.69816 -1.92309 2.57909
upperback -0.494244 -2.61625 -0.98832
thorax 0.842341 -1.29722 -2.54362
lowerneck -1.23182 5.32076 -3.62004
upperneck 5.97345 7.72453 -4.04587
head 2.11269 3.77744 -0.49206
rclavicle 2.75845e-014 2.98177e-015
rhumerus -32.0256 -3.49839 -92.9631
rradius 27.7532
rwrist 28.1489
rhand 9.86448 -21.7578
rfingers 7.12502
rthumb 34.9978 -48.3144
lclavicle 2.75845e-014 2.98177e-015
lhumerus -37.4772 14.2899 86.5797
lradius 32.2518
lwrist -11.7624
lhand -18.2794 15.4188
lfingers 7.12502
lthumb 8.00067 45.2474
rfemur -5.13537 22.6788 18.4535
rtibia 25.1092
rfoot -26.0037 -34.6706
rtoes -9.53195
lfemur -7.91586 -5.85847 -19.2066
ltibia 29.1395
lfoot -29.2952 28.4848
ltoes -12.6934
1062
root 37.008 17.3836 4.92625 -539.294 21.8616 -180.16
lowerback -2.663 -1.90291 2.60534
upperback -0.513295 -2.58769 -1.06342
thorax 0.800226 -1.28353 -2.63281
lowerneck -1.24598 5.30959 -3.55648
upperneck 6.03147 7.70784 -4.00511
head 2.13484 3.76903 -0.488679
rclavicle -5.06777e-014 4.37326e-015
rhumerus -32.1232 -3.51534 -93.014
rradius 27.688
rwrist 28.0081
rhand 9.88382 -21.8154
rfingers 7.12502
rthumb 35.0161 -48.3677
lclavicle -5.06777e-014 4.37326e-015
lhumerus -37.4802 14.1651 86.5197
lradius 32.273
lwrist -11.74
lhand -18.1026 15.3689
lfingers 7.12502
lthumb 8.17129 45.1909
rfemur -5.13217 22.6041 18.4288
rtibia 25.0744
rfoot -26.1422 -34.5976
rtoes -9.26832
lfemur -7.9397 -6.05162 -19.2411
ltibia 29.1845
lfoot -29.3393 28.6848
ltoes -12.711
1063
root 37.005 17.3832 4.92694 -539.294 21.87 -180.082
lowerback -2.6415 -1.89106 2.57591
upperback -0.499556 -2.57206 -0.994922
thorax 0.807784 -1.27577 -2.54505
lowerneck -1.23665 5.29141 -3.6899
upperneck 6.00823 7.68832 -4.00196
head 2.11998 3.75853 -0.467111
rclavicle 1.57009e-014 1.88845e-015
rhumerus -32.1679 -3.44403 -92.8922
rradius 27.5711
rwrist 28.2208
rhand 9.85583 -21.5666
rfingers 7.12502
rthumb 34.9896 -48.1251
lclavicle 1.57009e-014 1.88845e-015
lhumerus -37.435 14.1693 86.6508
lradius 32.3226
lwrist -11.6658
lhand -18.0228 15.3017
lfingers 7.12502
lthumb 8.24835 45.1207
rfemur -5.11634 22.519 18.49
rtibia 25.0531
rfoot -25.8362 -34.576
rtoes -9.63032
lfemur -7.93369 -6.01404 -19.1681
ltibia 29.2112
lfoot -29.3514 28.644
ltoes -12.6835
1064
root 37.0026 17.3832 4.92752 -539.3 21.8773 -180.051
lowerback -2.6169 -1.88833 2.53433
upperback -0.507122 -2.5668 -0.977657
thorax 0.789222 -1.27361 -2.50276
lowerneck -1.2193 5.28917 -3.72725
upperneck 6.00063 7.68798 -4.0172
head 2.11364 3.75845 -0.466447
rclavicle -3.74895e-014 -7.55382e-015
rhumerus -32.2244 -3.48965 -92.8027
rradius 27.4232
rwrist 28.5584
rhand 9.8055 -21.4818
rfingers 7.12502
rthumb 34.9418 -48.0514
lclavicle -3.74895e-014 -7.55382e-015
lhumerus -37.4354 14.1506 86.6795
lradius 32.3738
lwrist -11.6209
lhand -18.0275 15.2014
lfingers 7.12502
lthumb 8.2438 45.0205
rfemur -5.08892 22.5125 18.5179
rtibia 25.0175
rfoot -25.7855 -34.5536
rtoes -9.60643
lfemur -7.93264 -5.97204 -19.1401
ltibia 29.2347
lfoot -29.3017 28.5845
ltoes -12.6907
